<svg xmlns="http://www.w3.org/2000/svg" width="423" height="381" viewBox="0 0 423 381">
  <path fill="#F45347" fill-rule="evenodd" d="M5.3262022,149.531206 C17.3400459,103.597701 47.7400796,65.0184648 85.3336384,39.7898041 C104.179688,27.0936688 124.766637,17.3915963 146.141918,10.6017816 C156.989688,7.71406528 167.747128,4.69546093 178.824828,3.21479051 C189.746504,1.02241662 200.914534,0.433420651 211.984022,0.0734786691 C234.172269,-0.507336801 256.344093,2.37219905 277.563349,8.10672926 C298.725123,14.1602989 318.901483,23.281556 336.959201,35.4132368 C338.084216,36.1740233 338.388052,37.6955962 337.624356,38.8245052 C336.901719,39.8879701 335.472868,40.1988291 334.364277,39.5934721 C259.768408,-1.60352374 163.058198,8.99022321 99.8849241,59.6029741 C67.8671684,84.0626678 44.4800004,119.173372 37.2536282,156.893656 C29.5099135,194.442149 38.6742673,234.117572 61.420916,264.025478 C84.2414707,294.211522 119.617847,313.689291 156.554463,321.812527 C175.039194,326.229997 194.213716,327.514335 213.21579,326.810812 C232.185017,326.058206 251.425233,323.669501 269.729305,318.106761 C288.156554,312.928505 305.935072,305.377903 322.547516,295.602206 C339.274925,285.883773 353.990446,273.105833 367.178576,258.781778 C393.144245,229.822809 409.994831,191.554432 410.356149,148.672254 C410.356149,147.29793 411.481164,146.185382 412.860744,146.193562 C413.952912,146.193562 414.880844,146.913446 415.217527,147.886926 C422.287875,168.812643 423.659243,192.020721 420.128175,214.76251 C416.367177,237.463396 407.687319,259.648911 394.983685,279.380276 C382.534616,299.324334 365.955019,316.642451 347.306052,331.211921 C328.443579,345.576878 307.199687,356.74326 284.822569,364.825594 C262.412603,372.932469 238.721599,377.088163 214.874571,377.881671 C191.027543,378.634277 166.934161,375.820185 144.015065,368.768595 C98.3164729,354.837204 56.4609969,326.655383 29.2471364,286.718184 C1.95936972,246.813707 -6.76975936,195.301101 5.3262022,149.531206 Z" transform="translate(0 1)"/>
</svg>
